<svg width="100" height="100" viewBox="0 0 100 100" fill="none" xmlns="http://www.w3.org/2000/svg">
<g clip-path="url(#clip0_572_96)">
<path d="M15.625 0C14.5833 0 13.5688 0.1 12.5813 0.3L13.7938 6.425C14.397 6.30677 15.0103 6.24816 15.625 6.25H18.4875V0H15.625ZM29.95 0H24.2188V6.25H29.95V0ZM41.4062 0H35.675V6.25H41.4062V0ZM52.8625 0H47.1375V6.25H52.8625V0ZM64.325 0H58.5938V6.25H64.325V0ZM75.7812 0H70.05V6.25H75.7812V0ZM84.375 0H81.5125V6.25H84.375C85.0042 6.25 85.6146 6.31042 86.2063 6.43125L87.4188 0.3C86.4164 0.100702 85.397 0.000221176 84.375 0ZM97.3688 6.9375C96.2278 5.23294 94.7625 3.76969 93.0562 2.63125L89.5813 7.825C90.6146 8.52083 91.4792 9.38542 92.175 10.4188L97.3625 6.94375L97.3688 6.9375ZM6.9375 2.63125C5.23294 3.77217 3.76969 5.23754 2.63125 6.94375L7.825 10.4188C8.5125 9.39375 9.39375 8.5125 10.4188 7.825L6.9375 2.63125ZM100 15.625C100 14.5833 99.9 13.5688 99.7 12.5813L93.575 13.7938C93.6875 14.3813 93.7458 14.9917 93.75 15.625V18.4875H100V15.625ZM0.3 12.5813C0.100702 13.5836 0.000221176 14.603 0 15.625L0 18.4875H6.25V15.625C6.25 14.9958 6.31042 14.3854 6.43125 13.7938L0.3 12.5813ZM0 24.2188V29.95H6.25V24.2188H0ZM100 29.95V24.2188H93.75V29.95H100ZM0 35.675V41.4062H6.25V35.675H0ZM100 41.4062V35.675H93.75V41.4062H100ZM0 47.1375V52.8625H6.25V47.1375H0ZM93.75 52.8625H100V47.1375H93.75V52.8625ZM0 58.5938V64.325H6.25V58.5938H0ZM100 64.325V58.5938H93.75V64.325H100ZM0 70.05V75.7812H6.25V70.05H0ZM100 75.7812V70.05H93.75V75.7812H100ZM0 81.5125V84.375C0 85.4167 0.1 86.4313 0.3 87.4188L6.425 86.2063C6.30677 85.603 6.24816 84.9897 6.25 84.375V81.5125H0ZM100 84.375V81.5125H93.75V84.375C93.75 85.0042 93.6896 85.6146 93.5687 86.2063L99.7 87.4188C99.9 86.4313 100 85.4167 100 84.375ZM2.63125 93.0625C3.775 94.7625 5.2375 96.225 6.94375 97.3688L10.4188 92.175C9.39181 91.4896 8.51036 90.6082 7.825 89.5813L2.63125 93.0625ZM93.0625 97.3688C94.7625 96.225 96.225 94.7625 97.3688 93.0562L92.175 89.5813C91.4875 90.6063 90.6063 91.4875 89.5813 92.175L93.0562 97.3625L93.0625 97.3688ZM12.5813 99.7C13.5688 99.9 14.5833 100 15.625 100H18.4875V93.75H15.625C14.9958 93.75 14.3854 93.6896 13.7938 93.5687L12.5813 99.7ZM84.375 100C85.4167 100 86.4313 99.9 87.4188 99.7L86.2063 93.575C85.603 93.6932 84.9897 93.7518 84.375 93.75H81.5125V100H84.375ZM24.2188 100H29.95V93.75H24.2188V100ZM35.675 100H41.4062V93.75H35.675V100ZM47.1375 93.75V100H52.8625V93.75H47.1375ZM58.5938 100H64.325V93.75H58.5938V100ZM70.05 100H75.7812V93.75H70.05V100ZM53.125 28.125C53.125 27.2962 52.7958 26.5013 52.2097 25.9153C51.6237 25.3292 50.8288 25 50 25C49.1712 25 48.3763 25.3292 47.7903 25.9153C47.2042 26.5013 46.875 27.2962 46.875 28.125V46.875H28.125C27.2962 46.875 26.5013 47.2042 25.9153 47.7903C25.3292 48.3763 25 49.1712 25 50C25 50.8288 25.3292 51.6237 25.9153 52.2097C26.5013 52.7958 27.2962 53.125 28.125 53.125H46.875V71.875C46.875 72.7038 47.2042 73.4987 47.7903 74.0847C48.3763 74.6708 49.1712 75 50 75C50.8288 75 51.6237 74.6708 52.2097 74.0847C52.7958 73.4987 53.125 72.7038 53.125 71.875V53.125H71.875C72.7038 53.125 73.4987 52.7958 74.0847 52.2097C74.6708 51.6237 75 50.8288 75 50C75 49.1712 74.6708 48.3763 74.0847 47.7903C73.4987 47.2042 72.7038 46.875 71.875 46.875H53.125V28.125Z" fill="#A8E194"/>
</g>
<defs>
<clipPath id="clip0_572_96">
<rect width="100" height="100" fill="white"/>
</clipPath>
</defs>
</svg>
