<svg width="94" height="88" viewBox="0 0 94 88" fill="none" xmlns="http://www.w3.org/2000/svg">
<path d="M43.75 9.625C43.75 8.7962 44.0792 8.00134 44.6653 7.41529C45.2513 6.82924 46.0462 6.5 46.875 6.5H90.625C91.4538 6.5 92.2487 6.82924 92.8347 7.41529C93.4208 8.00134 93.75 8.7962 93.75 9.625V15.875C93.75 16.7038 93.4208 17.4987 92.8347 18.0847C92.2487 18.6708 91.4538 19 90.625 19H46.875C46.0462 19 45.2513 18.6708 44.6653 18.0847C44.0792 17.4987 43.75 16.7038 43.75 15.875V9.625ZM2.79397e-07 69C2.79397e-07 64.0272 1.97544 59.2581 5.49175 55.7417C9.00806 52.2254 13.7772 50.25 18.75 50.25C23.7228 50.25 28.4919 52.2254 32.0083 55.7417C35.5246 59.2581 37.5 64.0272 37.5 69C37.5 73.9728 35.5246 78.7419 32.0083 82.2583C28.4919 85.7746 23.7228 87.75 18.75 87.75C13.7772 87.75 9.00806 85.7746 5.49175 82.2583C1.97544 78.7419 2.79397e-07 73.9728 2.79397e-07 69ZM43.75 59.625C43.75 58.7962 44.0792 58.0013 44.6653 57.4153C45.2513 56.8292 46.0462 56.5 46.875 56.5H90.625C91.4538 56.5 92.2487 56.8292 92.8347 57.4153C93.4208 58.0013 93.75 58.7962 93.75 59.625V65.875C93.75 66.7038 93.4208 67.4987 92.8347 68.0847C92.2487 68.6708 91.4538 69 90.625 69H46.875C46.0462 69 45.2513 68.6708 44.6653 68.0847C44.0792 67.4987 43.75 66.7038 43.75 65.875V59.625ZM43.75 28.375C43.75 27.5462 44.0792 26.7513 44.6653 26.1653C45.2513 25.5792 46.0462 25.25 46.875 25.25H78.125C78.9538 25.25 79.7487 25.5792 80.3347 26.1653C80.9208 26.7513 81.25 27.5462 81.25 28.375C81.25 29.2038 80.9208 29.9987 80.3347 30.5847C79.7487 31.1708 78.9538 31.5 78.125 31.5H46.875C46.0462 31.5 45.2513 31.1708 44.6653 30.5847C44.0792 29.9987 43.75 29.2038 43.75 28.375ZM43.75 78.375C43.75 77.5462 44.0792 76.7513 44.6653 76.1653C45.2513 75.5792 46.0462 75.25 46.875 75.25H78.125C78.9538 75.25 79.7487 75.5792 80.3347 76.1653C80.9208 76.7513 81.25 77.5462 81.25 78.375C81.25 79.2038 80.9208 79.9987 80.3347 80.5847C79.7487 81.1708 78.9538 81.5 78.125 81.5H46.875C46.0462 81.5 45.2513 81.1708 44.6653 80.5847C44.0792 79.9987 43.75 79.2038 43.75 78.375ZM18.75 0.25C16.2877 0.25 13.8495 0.734983 11.5747 1.67726C9.29983 2.61953 7.23285 4.00065 5.49175 5.74175C3.75065 7.48285 2.36953 9.54983 1.42726 11.8247C0.484983 14.0995 0 16.5377 0 19C0 21.4623 0.484983 23.9005 1.42726 26.1753C2.36953 28.4502 3.75065 30.5172 5.49175 32.2583C7.23285 33.9993 9.29983 35.3805 11.5747 36.3227C13.8495 37.265 16.2877 37.75 18.75 37.75C23.7228 37.75 28.4919 35.7746 32.0083 32.2583C35.5246 28.7419 37.5 23.9728 37.5 19C37.5 14.0272 35.5246 9.25805 32.0083 5.74175C28.4919 2.22544 23.7228 0.25 18.75 0.25ZM18.75 28.375C16.2636 28.375 13.879 27.3873 12.1209 25.6291C10.3627 23.871 9.375 21.4864 9.375 19C9.375 16.5136 10.3627 14.129 12.1209 12.3709C13.879 10.6127 16.2636 9.625 18.75 9.625C21.2364 9.625 23.621 10.6127 25.3791 12.3709C27.1373 14.129 28.125 16.5136 28.125 19C28.125 21.4864 27.1373 23.871 25.3791 25.6291C23.621 27.3873 21.2364 28.375 18.75 28.375Z" fill="white"/>
</svg>
