<svg width="100" height="100" viewBox="0 0 100 100" fill="none" xmlns="http://www.w3.org/2000/svg">
<path d="M80.3363 0.914958C79.7503 0.329111 78.9556 0 78.1269 0C77.2983 0 76.5036 0.329111 75.9175 0.914958L65.6238 11.2087L88.7925 34.3775L99.0863 24.09C99.3773 23.7997 99.6082 23.4548 99.7657 23.0752C99.9233 22.6955 100.004 22.2885 100.004 21.8775C100.004 21.4664 99.9233 21.0594 99.7657 20.6797C99.6082 20.3001 99.3773 19.9552 99.0863 19.665L80.3363 0.914958ZM84.3738 38.7962L61.205 15.6275L20.58 56.2525H21.8738C22.7026 56.2525 23.4974 56.5817 24.0835 57.1677C24.6695 57.7538 24.9988 58.5487 24.9988 59.3775V62.5025H28.1238C28.9526 62.5025 29.7474 62.8317 30.3335 63.4177C30.9195 64.0038 31.2488 64.7987 31.2488 65.6275V68.7525H34.3738C35.2026 68.7525 35.9974 69.0817 36.5835 69.6677C37.1695 70.2538 37.4988 71.0487 37.4988 71.8775V75.0025H40.6238C41.4526 75.0025 42.2474 75.3317 42.8335 75.9177C43.4195 76.5038 43.7488 77.2987 43.7488 78.1275V79.4212L84.3738 38.7962ZM37.6988 85.4712C37.5673 85.1215 37.4995 84.7511 37.4988 84.3775V81.2525H34.3738C33.545 81.2525 32.7501 80.9232 32.1641 80.3372C31.578 79.7511 31.2488 78.9563 31.2488 78.1275V75.0025H28.1238C27.295 75.0025 26.5001 74.6732 25.9141 74.0872C25.328 73.5011 24.9988 72.7063 24.9988 71.8775V68.7525H21.8738C21.045 68.7525 20.2501 68.4232 19.6641 67.8372C19.078 67.2511 18.7488 66.4563 18.7488 65.6275V62.5025H15.6238C15.2502 62.5017 14.8797 62.434 14.53 62.3025L13.4113 63.415C13.1135 63.7149 12.8796 64.0721 12.7238 64.465L0.223788 95.715C-0.00352871 96.2829 -0.0591756 96.905 0.063746 97.5042C0.186668 98.1034 0.482752 98.6534 0.915292 99.086C1.34783 99.5185 1.89781 99.8146 2.49703 99.9375C3.09626 100.06 3.71839 100.005 4.28629 99.7775L35.5363 87.2775C35.9292 87.1217 36.2864 86.8878 36.5863 86.59L37.6988 85.4712Z" fill="white"/>
</svg>
