<?xml version="1.0" encoding="UTF-8"?>
<svg version="1.1" xmlns="http://www.w3.org/2000/svg" width="512" height="512">
<path d="M0 0 C128.7 0 257.4 0 390 0 C390 9.9 390 19.8 390 30 C380.1 30 370.2 30 360 30 C360 33.3 360 36.6 360 40 C357.2726745 85.19616485 343.03200973 129.80671636 314 165 C313.33411865 165.81815186 313.33411865 165.81815186 312.65478516 166.65283203 C302.7144536 178.81458417 291.75619678 190.17709727 279.81933594 200.39282227 C277.96816892 202.02811916 276.22885588 203.7365826 274.5 205.5 C272.10946833 207.93389732 269.64953738 210.21355559 267.0625 212.4375 C255.09949009 222.85912209 243.21709008 235.35507469 241.62890625 251.85546875 C240.88776388 267.8508414 247.12337401 278.48507001 257.5 290.1875 C263.07689162 296.2267735 268.80428723 301.88523207 275.03125 307.25 C276.93023071 308.93798286 278.72005988 310.68769734 280.5 312.5 C282.79015137 314.83123032 285.13455601 317.00968564 287.625 319.125 C297.35594102 327.55218388 306.09942202 336.84414033 314 347 C314.81082031 348.00546875 315.62164062 349.0109375 316.45703125 350.046875 C345.80080397 386.75061537 360 435.42282824 360 482 C369.9 482 379.8 482 390 482 C390 491.9 390 501.8 390 512 C261.3 512 132.6 512 0 512 C0 502.1 0 492.2 0 482 C9.9 482 19.8 482 30 482 C30 478.7 30 475.4 30 472 C32.7273255 426.80383515 46.96799027 382.19328364 76 347 C76.4439209 346.45456543 76.8878418 345.90913086 77.34521484 345.34716797 C87.2855464 333.18541583 98.24380322 321.82290273 110.18066406 311.60717773 C112.03183108 309.97188084 113.77114412 308.2634174 115.5 306.5 C117.89053167 304.06610268 120.35046262 301.78644441 122.9375 299.5625 C134.90050991 289.14087791 146.78290992 276.64492531 148.37109375 260.14453125 C149.11223612 244.1491586 142.87662599 233.51492999 132.5 221.8125 C126.92310838 215.7732265 121.19571277 210.11476793 114.96875 204.75 C113.06976929 203.06201714 111.27994012 201.31230266 109.5 199.5 C107.20984863 197.16876968 104.86544399 194.99031436 102.375 192.875 C92.64405898 184.44781612 83.90057798 175.15585967 76 165 C74.78376953 163.49179687 74.78376953 163.49179687 73.54296875 161.953125 C44.19919603 125.24938463 30 76.57717176 30 30 C20.1 30 10.2 30 0 30 C0 20.1 0 10.2 0 0 Z M61 30 C61.62839629 45.8763435 61.62839629 45.8763435 63.6875 61.4375 C63.85685059 62.37779053 64.02620117 63.31808105 64.20068359 64.28686523 C66.50290513 76.45531506 70.08817986 88.26453958 74 100 C153.86 100 233.72 100 316 100 C319.91158174 87.61332449 323.53611009 75.68389343 326 63 C326.32291016 61.3603125 326.32291016 61.3603125 326.65234375 59.6875 C328.39080205 49.7389503 328.48686373 40.26272542 329 30 C240.56 30 152.12 30 61 30 Z M179 268 C178.79246094 268.84820312 178.58492188 269.69640625 178.37109375 270.5703125 C171.33684821 297.35342314 153.23928782 315.78087246 132.72143555 333.49243164 C130.72108114 335.24426663 128.84662821 337.08742079 127 339 C124.5079671 341.53549859 121.97577303 343.90663621 119.25 346.1875 C101.82738549 361.29164526 81.24604095 386.12750791 76 409 C84.20436552 406.45965747 92.07599447 403.18374199 100.00585938 399.90591431 C102.54958141 398.85450629 105.09494692 397.80716034 107.640625 396.76049805 C116.82399874 392.98100794 125.99433483 389.17103269 135.15625 385.33984375 C137.88851266 384.19945939 140.62088972 383.05934945 143.35327148 381.91925049 C145.93066474 380.84149309 148.50541389 379.75759685 151.08007812 378.67333984 C152.69910984 377.99680962 154.31824554 377.32052816 155.9375 376.64453125 C156.63315063 376.34925034 157.32880127 376.05396942 158.04553223 375.7497406 C165.27241189 372.74665366 172.50340471 370.4988651 180 368 C180 335 180 302 180 268 C179.67 268 179.34 268 179 268 Z M210 268 C210 301 210 334 210 368 C214.95 369.65 219.9 371.3 225 373 C228.0252651 374.16740941 231.01047031 375.34580667 233.9921875 376.609375 C234.77043884 376.93383102 235.54869019 377.25828705 236.3505249 377.59257507 C238.00658674 378.28378157 239.66164754 378.97739097 241.31573486 379.67330933 C243.94198374 380.77818026 246.57096887 381.87630607 249.20068359 382.97290039 C252.90377045 384.51788909 256.6057336 386.06551952 260.30664062 387.61572266 C268.84090629 391.19040635 277.37882572 394.75624463 285.92144775 398.31091309 C288.57777644 399.41782165 291.23204689 400.52956123 293.88623047 401.64160156 C295.52041376 402.32249141 297.15468641 403.00316682 298.7890625 403.68359375 C299.51961853 403.99117111 300.25017456 404.29874847 301.00286865 404.61564636 C305.28199712 406.39030405 309.52138071 407.81133915 314 409 C307.61813899 389.98269558 295.96589447 372.98408764 282.28125 358.43359375 C280.3762977 356.40142717 278.58852299 354.33050733 276.8125 352.1875 C271.69882749 346.30916618 265.79345585 341.17654588 260.06884766 335.90722656 C254.61286425 330.87747174 249.19607365 325.80597957 243.80566406 320.70605469 C242.67008031 319.63311536 241.53179162 318.56302445 240.38964844 317.49707031 C225.96024538 303.99371931 214.77943294 287.65305128 211 268 C210.67 268 210.34 268 210 268 Z " fill="#000000" transform="translate(61,0)"/>
</svg>
