<svg width="100" height="88" viewBox="0 0 100 88" fill="none" xmlns="http://www.w3.org/2000/svg">
<path d="M0.0125122 12.75C0.0125122 9.43479 1.32947 6.25537 3.67368 3.91117C6.01788 1.56696 9.19731 0.25 12.5125 0.25H87.5125C90.8277 0.25 94.0071 1.56696 96.3513 3.91117C98.6956 6.25537 100.013 9.43479 100.013 12.75V75.25C100.013 78.5652 98.6956 81.7446 96.3513 84.0888C94.0071 86.433 90.8277 87.75 87.5125 87.75H12.5125C9.19731 87.75 6.01788 86.433 3.67368 84.0888C1.32947 81.7446 0.0125122 78.5652 0.0125122 75.25V12.75ZM6.26251 69V75.25C6.26251 76.9076 6.92099 78.4973 8.09309 79.6694C9.2652 80.8415 10.8549 81.5 12.5125 81.5H87.5125C89.1701 81.5 90.7598 80.8415 91.9319 79.6694C93.104 78.4973 93.7625 76.9076 93.7625 75.25V53.375L70.1563 41.2062C69.5702 40.9126 68.9066 40.8108 68.2594 40.9151C67.6122 41.0194 67.0142 41.3246 66.55 41.7875L43.3625 64.975L26.7375 53.9C26.1373 53.5004 25.4173 53.3206 24.6996 53.3913C23.982 53.4619 23.3108 53.7785 22.8 54.2875L6.26251 69ZM37.5125 28.375C37.5125 25.8886 36.5248 23.504 34.7666 21.7459C33.0085 19.9877 30.6239 19 28.1375 19C25.6511 19 23.2665 19.9877 21.5084 21.7459C19.7502 23.504 18.7625 25.8886 18.7625 28.375C18.7625 30.8614 19.7502 33.246 21.5084 35.0041C23.2665 36.7623 25.6511 37.75 28.1375 37.75C30.6239 37.75 33.0085 36.7623 34.7666 35.0041C36.5248 33.246 37.5125 30.8614 37.5125 28.375Z" fill="black"/>
</svg>
