<?xml version="1.0" encoding="UTF-8"?>
<svg version="1.1" xmlns="http://www.w3.org/2000/svg" width="512" height="512">
<path d="M0 0 C1.45108658 0.00273422 1.45108658 0.00273422 2.93148804 0.00552368 C17.26440977 0.05095174 31.21023917 0.55983928 45.3125 3.3125 C46.65803955 3.55395752 46.65803955 3.55395752 48.03076172 3.80029297 C107.84088904 14.62287989 165.35495829 48.68064457 202.3125 97.3125 C202.72918945 97.85277832 203.14587891 98.39305664 203.57519531 98.94970703 C211.2584873 108.9447116 218.00092968 119.40459036 224.3125 130.3125 C224.70679199 130.98974121 225.10108398 131.66698242 225.50732422 132.36474609 C238.68961173 155.2833756 247.29510918 180.85822563 252.625 206.6875 C252.77243652 207.39817627 252.91987305 208.10885254 253.07177734 208.84106445 C256.05713787 224.48358366 256.6873098 240.11919606 256.625 256 C256.62226578 257.45108658 256.62226578 257.45108658 256.61947632 258.93148804 C256.57404826 273.26440977 256.06516072 287.21023917 253.3125 301.3125 C253.15152832 302.20952637 252.99055664 303.10655273 252.82470703 304.03076172 C242.00212011 363.84088904 207.94435543 421.35495829 159.3125 458.3125 C158.77222168 458.72918945 158.23194336 459.14587891 157.67529297 459.57519531 C147.6802884 467.2584873 137.22040964 474.00092968 126.3125 480.3125 C125.63525879 480.70679199 124.95801758 481.10108398 124.26025391 481.50732422 C101.3416244 494.68961173 75.76677437 503.29510918 49.9375 508.625 C49.22682373 508.77243652 48.51614746 508.91987305 47.78393555 509.07177734 C32.14141634 512.05713787 16.50580394 512.6873098 0.625 512.625 C-0.34239105 512.62317719 -1.3097821 512.62135437 -2.30648804 512.61947632 C-16.63940977 512.57404826 -30.58523917 512.06516072 -44.6875 509.3125 C-45.58452637 509.15152832 -46.48155273 508.99055664 -47.40576172 508.82470703 C-107.21588904 498.00212011 -164.72995829 463.94435543 -201.6875 415.3125 C-202.10418945 414.77222168 -202.52087891 414.23194336 -202.95019531 413.67529297 C-210.6334873 403.6802884 -217.37592968 393.22040964 -223.6875 382.3125 C-224.08179199 381.63525879 -224.47608398 380.95801758 -224.88232422 380.26025391 C-238.06461173 357.3416244 -246.67010918 331.76677437 -252 305.9375 C-252.14743652 305.22682373 -252.29487305 304.51614746 -252.44677734 303.78393555 C-255.43213787 288.14141634 -256.0623098 272.50580394 -256 256.625 C-255.99817719 255.65760895 -255.99635437 254.6902179 -255.99447632 253.69351196 C-255.94904826 239.36059023 -255.44016072 225.41476083 -252.6875 211.3125 C-252.44604248 209.96696045 -252.44604248 209.96696045 -252.19970703 208.59423828 C-241.37712011 148.78411096 -207.31935543 91.27004171 -158.6875 54.3125 C-158.14722168 53.89581055 -157.60694336 53.47912109 -157.05029297 53.04980469 C-147.0552884 45.3665127 -136.59540964 38.62407032 -125.6875 32.3125 C-125.01025879 31.91820801 -124.33301758 31.52391602 -123.63525391 31.11767578 C-100.7166244 17.93538827 -75.14177437 9.32989082 -49.3125 4 C-48.60182373 3.85256348 -47.89114746 3.70512695 -47.15893555 3.55322266 C-31.51641634 0.56786213 -15.88080394 -0.0623098 0 0 Z " fill="#25B7D3" transform="translate(255.6875,-0.3125)"/>
<path d="M0 0 C2.30582442 0.00315136 4.61034924 -0.02036856 6.91601562 -0.0456543 C38.47036865 -0.1773145 67.77573494 10.26338018 90.75976562 32.19067383 C106.63290248 48.66819866 114.25214392 69.78701718 114.04321289 92.3972168 C113.28899213 117.7526383 100.78590176 136.79215563 83.10742188 153.94848633 C80.43062694 156.44792813 77.70852871 158.87138539 74.92382812 161.24926758 C70.93182845 164.75718755 67.08370611 168.42050015 63.20874023 172.05664062 C59.64109713 175.39950134 56.04574161 178.69961593 52.38476562 181.94067383 C38.60316996 194.31880149 29.67927169 204.59459322 24.91699219 222.82397461 C24.43512807 224.66120551 23.9463149 226.49662551 23.45117188 228.33032227 C22.96062685 230.15080348 22.48579175 231.97561519 22.02929688 233.80493164 C20.2178214 240.52206487 17.46851262 246.7867267 11.43994141 250.69970703 C3.56652698 254.86214066 -5.02405154 255.47707388 -13.77539062 253.88989258 C-20.72409169 251.63812663 -26.49129882 246.63403812 -29.86523438 240.19067383 C-35.71355242 227.54991466 -33.58249449 209.10350621 -29.1640625 196.25708008 C-20.94167945 174.57790567 -5.58895271 158.86073954 11.71875 143.92407227 C15.04966267 141.03365437 18.26465889 138.01857326 21.48925781 135.01074219 C24.20942472 132.47915174 26.9423567 129.97724136 29.75976562 127.55395508 C40.11535684 118.57027939 49.65503613 107.95788783 50.87695312 93.78051758 C51.15112605 85.72467205 50.40463816 79.42390275 46.57226562 72.31567383 C46.06373047 71.29086914 46.06373047 71.29086914 45.54492188 70.24536133 C39.55343011 59.3711236 30.11673893 53.87933744 18.57226562 50.31567383 C17.89808594 50.07075195 17.22390625 49.82583008 16.52929688 49.57348633 C3.57649188 45.39885161 -12.17767955 48.38992112 -24.37304688 53.56567383 C-40.41872165 62.20187799 -48.62849983 83.2989706 -53.92016602 99.82128906 C-56.93554476 108.8634564 -63.04640134 117.02967984 -71.65039062 121.46020508 C-75.21835987 122.55919983 -78.60614374 122.64544762 -82.30273438 122.62817383 C-82.98464844 122.64428711 -83.6665625 122.66040039 -84.36914062 122.67700195 C-92.60563316 122.68484623 -99.59591853 119.00582613 -105.42773438 113.31567383 C-112.56307887 103.40032499 -113.50616942 94.22923766 -112.42773438 82.31567383 C-108.31272772 58.13589474 -92.14247988 36.73847834 -72.75585938 22.61254883 C-50.56971337 7.1061027 -27.11392998 -0.0770931 0 0 Z " fill="#FDFEFE" transform="translate(255.427734375,84.684326171875)"/>
<path d="M0 0 C9.41256045 5.90873084 14.82324377 12.99316881 18.30859375 23.44921875 C18.92869884 32.4966537 19.22266218 40.50452275 14.30859375 48.44921875 C13.75171875 49.48046875 13.19484375 50.51171875 12.62109375 51.57421875 C7.37629352 58.0947812 0.68342574 63.12997658 -7.69140625 64.44921875 C-20.23923543 65.61375046 -29.94072266 64.57944479 -40.00390625 56.44921875 C-46.79790894 49.8692004 -49.76402508 42.86172567 -50.22607422 33.40869141 C-50.37239619 22.44994589 -47.60967848 14.50966149 -40.05078125 6.49609375 C-29.30504218 -2.82636862 -13.18099021 -6.33487725 0 0 Z " fill="#FCFEFE" transform="translate(268.69140625,362.55078125)"/>
</svg>
