<?xml version="1.0" encoding="UTF-8"?>
<svg version="1.1" xmlns="http://www.w3.org/2000/svg" width="512" height="512">
<path d="M0 0 C0.96988861 0.00182281 1.93977722 0.00364563 2.9390564 0.00552368 C17.29056055 0.05091691 31.25442918 0.5562653 45.375 3.3125 C46.72053955 3.55395752 46.72053955 3.55395752 48.09326172 3.80029297 C91.69438156 11.68987506 132.84026903 31.3774291 166.375 60.3125 C167.13167969 60.95832031 167.88835937 61.60414062 168.66796875 62.26953125 C180.8161432 72.91190183 192.64131337 84.40083733 202.375 97.3125 C202.78878906 97.84987793 203.20257813 98.38725586 203.62890625 98.94091797 C211.31576589 108.9388779 218.06113145 119.40061847 224.375 130.3125 C224.76929199 130.98974121 225.16358398 131.66698242 225.56982422 132.36474609 C238.9915837 155.69971982 247.25020472 181.48364115 252.6875 207.75 C252.83493652 208.45680908 252.98237305 209.16361816 253.13427734 209.8918457 C256.06774027 225.15238701 256.75326888 240.43996059 256.6875 255.9375 C256.68534485 256.85692383 256.6831897 257.77634766 256.68096924 258.72363281 C256.62706415 273.09666193 256.11651263 287.16402869 253.375 301.3125 C253.07698486 302.85550781 253.07698486 302.85550781 252.77294922 304.4296875 C240.7821482 364.35674699 208.50126317 420.97923554 159.375 458.3125 C158.83472168 458.72918945 158.29444336 459.14587891 157.73779297 459.57519531 C147.7427884 467.2584873 137.28290964 474.00092968 126.375 480.3125 C125.69775879 480.70679199 125.02051758 481.10108398 124.32275391 481.50732422 C86.60373904 503.20246522 43.39744326 512.79899721 0.1875 512.625 C-1.22757339 512.62226578 -1.22757339 512.62226578 -2.67123413 512.61947632 C-16.84231531 512.57344343 -30.68999852 512.10598421 -44.625 509.3125 C-45.52831055 509.13557617 -46.43162109 508.95865234 -47.36230469 508.77636719 C-53.83369999 507.47760189 -60.2366725 505.97035815 -66.625 504.3125 C-67.45563965 504.09754883 -68.2862793 503.88259766 -69.14208984 503.66113281 C-109.61050039 492.92838092 -146.54181601 471.28690378 -176.625 442.3125 C-177.28435547 441.68037598 -177.94371094 441.04825195 -178.62304688 440.39697266 C-188.11382 431.25009947 -196.83820776 421.94804306 -204.625 411.3125 C-205.44744754 410.21969886 -206.27036382 409.12725034 -207.09375 408.03515625 C-229.29450597 378.1912292 -244.13797571 343.68546844 -251.625 307.3125 C-251.83527832 306.31138184 -252.04555664 305.31026367 -252.26220703 304.27880859 C-258.61424225 272.55886711 -258.31108653 236.93875059 -251.625 205.3125 C-251.40537598 204.27061523 -251.18575195 203.22873047 -250.95947266 202.15527344 C-241.04735766 156.7124702 -219.22440838 113.4525054 -186.46972656 80.18798828 C-184.52498022 78.21081235 -182.60253414 76.21330796 -180.6796875 74.21484375 C-172.51124101 65.80260723 -164.07869229 58.24179512 -154.625 51.3125 C-154.05571777 50.88775391 -153.48643555 50.46300781 -152.89990234 50.02539062 C-144.15908179 43.50981985 -135.11413672 37.67661453 -125.625 32.3125 C-124.91778809 31.9103125 -124.21057617 31.508125 -123.48193359 31.09375 C-97.33439144 16.37245949 -68.31333558 6.67328667 -38.625 2.3125 C-37.42037109 2.13517334 -36.21574219 1.95784668 -34.97460938 1.77514648 C-23.31732646 0.176175 -11.75313902 -0.0459053 0 0 Z " fill="#25B7D3" transform="translate(255.625,-0.3125)"/>
<path d="M0 0 C6.2298757 3.50041615 11.74456926 8.09432308 17.1875 12.6875 C18.67863102 13.93095551 20.17083298 15.1731278 21.6640625 16.4140625 C22.39657227 17.02282227 23.12908203 17.63158203 23.88378906 18.25878906 C26.90433211 20.74408129 29.97596511 23.1599815 33.0625 25.5625 C38.09219082 29.4813921 43.06053717 33.46796629 48 37.5 C52.96232244 41.54982067 57.9515402 45.55805194 63 49.5 C68.74010668 53.9820011 74.39693246 58.55956557 80.0390625 63.1640625 C84.32453067 66.65531263 88.64376733 70.09756874 93 73.5 C98.25482883 77.61396282 103.48630825 81.75587339 108.6875 85.9375 C109.37134766 86.48148437 110.05519531 87.02546875 110.75976562 87.5859375 C118.70539847 94.00325627 118.70539847 94.00325627 119.5625 99.8125 C119.35103111 103.77936473 117.99631525 106.15188632 115.203125 109.04296875 C111.25777898 112.54761123 107.09976239 115.76767039 102.9140625 118.9765625 C98.87852873 122.07378897 94.9364001 125.27826949 91 128.5 C85.47731173 133.00845206 79.90813701 137.44844096 74.2890625 141.8359375 C69.81563292 145.33776247 65.40132798 148.90811164 61 152.5 C55.47660315 157.00759973 49.90815564 161.44842642 44.2890625 165.8359375 C39.81562362 169.33776974 35.40166581 172.90851498 31 176.5 C2.73608505 199.52644682 2.73608505 199.52644682 -3.25 200.5625 C-6.51992304 199.89365211 -8.3984334 199.10937833 -11 197 C-13.79804925 192.44036657 -14.43331121 188.613869 -14.38768005 183.37145996 C-14.39575836 182.24918511 -14.39575836 182.24918511 -14.40399987 181.10423803 C-14.41825943 178.60773411 -14.41118089 176.11176193 -14.40405273 173.61523438 C-14.40975731 171.82114741 -14.4167219 170.02706407 -14.42485046 168.23298645 C-14.44278598 163.36733919 -14.44161291 158.50187224 -14.43590808 153.63620186 C-14.43281724 149.57294145 -14.43890741 145.50971572 -14.44494683 141.44646025 C-14.45899132 131.86125012 -14.45743097 122.27612913 -14.44604492 112.69091797 C-14.43455948 102.80355382 -14.44864674 92.91646079 -14.4754414 83.02913237 C-14.49759243 74.53724873 -14.50423724 66.04545023 -14.49836498 57.55353975 C-14.4949933 52.482908 -14.49742475 47.4124501 -14.51461601 42.34184265 C-14.53007387 37.57453908 -14.52614249 32.80763758 -14.50731087 28.04034996 C-14.50362199 26.29162867 -14.50674217 24.54287766 -14.51719666 22.79418373 C-14.53038808 20.40517182 -14.51887681 18.01749466 -14.50120544 15.62854004 C-14.51081045 14.93806627 -14.52041546 14.2475925 -14.53031152 13.53619528 C-14.45537091 8.60565889 -13.05097447 5.81638903 -10 2 C-6.76377395 -0.37323244 -3.93144853 -0.59342619 0 0 Z " fill="#FDFEFE" transform="translate(147,156)"/>
<path d="M0 0 C3.03652318 1.80896225 5.57272051 4.0076272 8.1875 6.375 C9.67846392 7.66417687 11.17066801 8.95192076 12.6640625 10.23828125 C13.76282715 11.19855225 13.76282715 11.19855225 14.88378906 12.17822266 C17.86458327 14.74429169 20.94971089 17.15975555 24.0625 19.5625 C29.09391674 23.47911973 34.06059556 27.46801395 39 31.5 C43.96232244 35.54982067 48.9515402 39.55805194 54 43.5 C59.74010668 47.9820011 65.39693246 52.55956557 71.0390625 57.1640625 C75.32452248 60.65530596 79.6434981 64.09792168 84 67.5 C115.66330248 92.25146855 115.66330248 92.25146855 116.34375 95.78515625 C116.65599164 100.33607812 116.32290651 103.29751547 113.375 106.875 C108.94125804 111.37982399 103.89072223 115.17992313 98.87890625 119.01171875 C94.85175645 122.09323033 90.92344501 125.28809743 87 128.5 C81.47737204 133.0085244 75.90813537 137.44844225 70.2890625 141.8359375 C65.81563292 145.33776247 61.40132798 148.90811164 57 152.5 C51.47660315 157.00759973 45.90815564 161.44842642 40.2890625 165.8359375 C35.81563265 169.33776268 31.40133428 172.90811864 27 176.5 C20.71845775 181.62615862 14.37763702 186.66919636 7.98828125 191.66015625 C6.08815988 193.1479637 4.21551499 194.67208119 2.3828125 196.2421875 C-1.22355543 198.90262286 -4.56865181 199.48285341 -9 199 C-12.12831275 197.34804275 -14.39775813 195.20448375 -16 192 C-16.11056066 189.55792616 -16.16102042 187.14353569 -16.1673584 184.70062256 C-16.17315178 183.93952281 -16.17894517 183.17842307 -16.18491411 182.39425969 C-16.203029 179.83022882 -16.21386141 177.26622005 -16.22460938 174.70214844 C-16.23578088 172.86924537 -16.24729408 171.03634436 -16.25912476 169.20344543 C-16.29572508 163.17211766 -16.32090542 157.14076877 -16.34375 151.109375 C-16.34769587 150.0839689 -16.35164173 149.05856279 -16.35570717 148.00208378 C-16.39212505 138.33517128 -16.42357638 128.66825157 -16.44481659 119.00129318 C-16.47240503 106.62697968 -16.52319417 94.25323858 -16.60529089 81.8791635 C-16.66103375 73.18356559 -16.69004555 64.48812323 -16.6992898 55.79235291 C-16.70555474 50.59624254 -16.72374246 45.40080297 -16.77067566 40.20488739 C-16.81428815 35.31600887 -16.82484729 30.42816917 -16.81004715 25.53912926 C-16.81037628 23.74521463 -16.82269048 21.95125595 -16.84789658 20.15751839 C-17.02697011 6.70353175 -17.02697011 6.70353175 -14.54281616 2.58283234 C-10.07274327 -1.54855942 -5.68010562 -2.07238831 0 0 Z " fill="#FEFEFE" transform="translate(289,157)"/>
</svg>
