<svg width="100" height="100" viewBox="0 0 100 100" fill="none" xmlns="http://www.w3.org/2000/svg">
<path d="M100 50C100 63.2608 94.7322 75.9785 85.3553 85.3553C75.9785 94.7322 63.2608 100 50 100C36.7392 100 24.0215 94.7322 14.6447 85.3553C5.26784 75.9785 0 63.2608 0 50C0 36.7392 5.26784 24.0215 14.6447 14.6447C24.0215 5.26784 36.7392 0 50 0C63.2608 0 75.9785 5.26784 85.3553 14.6447C94.7322 24.0215 100 36.7392 100 50ZM33.4625 29.0375C32.8757 28.4507 32.0798 28.1211 31.25 28.1211C30.4202 28.1211 29.6243 28.4507 29.0375 29.0375C28.4507 29.6243 28.1211 30.4202 28.1211 31.25C28.1211 32.0798 28.4507 32.8757 29.0375 33.4625L45.5813 50L29.0375 66.5375C28.747 66.828 28.5165 67.173 28.3592 67.5526C28.202 67.9322 28.1211 68.3391 28.1211 68.75C28.1211 69.1609 28.202 69.5678 28.3592 69.9474C28.5165 70.327 28.747 70.672 29.0375 70.9625C29.6243 71.5493 30.4202 71.8789 31.25 71.8789C31.6609 71.8789 32.0678 71.798 32.4474 71.6408C32.827 71.4835 33.172 71.2531 33.4625 70.9625L50 54.4187L66.5375 70.9625C66.828 71.2531 67.173 71.4835 67.5526 71.6408C67.9322 71.798 68.3391 71.8789 68.75 71.8789C69.1609 71.8789 69.5678 71.798 69.9474 71.6408C70.327 71.4835 70.672 71.2531 70.9625 70.9625C71.2531 70.672 71.4835 70.327 71.6408 69.9474C71.798 69.5678 71.8789 69.1609 71.8789 68.75C71.8789 68.3391 71.798 67.9322 71.6408 67.5526C71.4835 67.173 71.2531 66.828 70.9625 66.5375L54.4187 50L70.9625 33.4625C71.2531 33.172 71.4835 32.827 71.6408 32.4474C71.798 32.0678 71.8789 31.6609 71.8789 31.25C71.8789 30.8391 71.798 30.4322 71.6408 30.0526C71.4835 29.673 71.2531 29.328 70.9625 29.0375C70.672 28.747 70.327 28.5165 69.9474 28.3592C69.5678 28.202 69.1609 28.1211 68.75 28.1211C68.3391 28.1211 67.9322 28.202 67.5526 28.3592C67.173 28.5165 66.828 28.747 66.5375 29.0375L50 45.5813L33.4625 29.0375Z" fill="#E00F0F"/>
</svg>
